<svg width="200" height="33" viewBox="0 0 200 33" fill="none" xmlns="http://www.w3.org/2000/svg">
<path d="M18.5631 1.14355V20.1167H14.8134V9.41586H14.6463L9.87557 17.764H8.68754L3.93538 9.41586H3.76831V20.1167H0V1.14355H3.45274L9.2073 11.6547H9.37437L15.0918 1.14355H18.5631Z" fill="black"/>
<path d="M55.6882 1.14355V20.1167H51.9385V9.41586H51.7714L47.0006 17.764H45.8126L41.0604 9.41586H40.8933V20.1167H37.125V1.14355H40.5778L46.3324 11.6547H46.4994L52.2169 1.14355H55.6882Z" fill="black"/>
<path d="M74.3828 14.7472H78.411C78.6338 16.4737 81.5482 16.967 83.6644 16.967C86.0961 16.967 88.6207 16.0563 88.6207 14.4246C88.6207 13.1724 87.8411 12.5273 85.2608 12.3376L80.62 11.9771C76.3134 11.6546 74.6798 9.24496 74.6798 6.64563C74.6798 2.69921 78.3553 0.707031 83.6273 0.707031C89.3633 0.707031 92.4633 2.81305 92.4633 6.43693H88.5279C88.398 5.03291 85.8363 4.31193 83.6273 4.31193C81.6781 4.31193 78.6895 4.78626 78.6895 6.38001C78.6895 7.65121 80.0074 8.44808 81.9009 8.52398L86.3932 8.82755C90.31 9.11215 92.6304 10.9146 92.6304 14.5005C92.6304 18.371 88.9734 20.5719 83.6644 20.5719C77.7613 20.5719 74.3828 18.5798 74.3828 14.7472Z" fill="black"/>
<path d="M149.75 2.31989V3.66698H152.051V4.84332H149.75V6.28528H152.144V7.48059H148.506V1.14355H152.163V2.31989H149.75Z" fill="#070707"/>
<path d="M156.543 4.31207L158.306 7.48059H156.84L155.726 5.33662H155.67L154.556 7.48059H153.09L154.853 4.31207L153.09 1.14355H154.556L155.67 3.30649H155.726L156.84 1.14355H158.306L156.543 4.31207Z" fill="#070707"/>
<path d="M163.765 3.24958C163.765 4.59667 162.911 5.3556 161.723 5.3556H160.665V7.49957H159.402V1.14355H161.723C162.911 1.14355 163.765 1.90248 163.765 3.24958ZM162.465 3.24958C162.465 2.64244 162.094 2.31989 161.63 2.31989H160.665V4.16029H161.63C162.094 4.16029 162.465 3.83775 162.465 3.24958Z" fill="#070707"/>
<path d="M166.27 2.31989V3.66698H168.572V4.84332H166.27V6.28528H168.665V7.48059H165.008V1.14355H168.665V2.31989H166.27Z" fill="#070707"/>
<path d="M173.176 7.48059L172.007 5.16586H171.413V7.48059H170.15V1.14355H172.452C173.659 1.14355 174.513 1.88351 174.513 3.15471C174.513 4.12234 174.012 4.7864 173.269 5.03305L174.568 7.48059H173.176ZM171.394 3.97055H172.378C172.861 3.97055 173.195 3.66699 173.195 3.15471C173.195 2.62346 172.861 2.31989 172.378 2.31989H171.394V3.97055Z" fill="#070707"/>
<path d="M175.887 1.14355H177.149V7.48059H175.887V1.14355Z" fill="#070707"/>
<path d="M180.026 2.31989V3.66698H182.328V4.84332H180.026V6.28528H182.421V7.48059H178.764V1.14355H182.421V2.31989H180.026Z" fill="#070707"/>
<path d="M188.713 1.14355V7.48059H187.432L185.205 3.5152H185.149V7.48059H183.887V1.14355H185.168L187.395 5.12792H187.451V1.14355H188.713Z" fill="#070707"/>
<path d="M192.724 0.991699C193.968 0.991699 194.914 1.82652 195.081 3.15464H193.763C193.615 2.49058 193.207 2.22495 192.705 2.22495C191.851 2.22495 191.369 2.94593 191.369 4.312C191.369 5.67806 191.833 6.39904 192.705 6.39904C193.188 6.39904 193.615 6.11445 193.763 5.46936H195.081C194.896 6.81645 193.949 7.6323 192.724 7.6323C191.035 7.6323 190.088 6.34212 190.088 4.312C190.088 2.2629 191.035 0.991699 192.724 0.991699Z" fill="#070707"/>
<path d="M197.606 2.31989V3.66698H199.908V4.84332H197.606V6.28528H200.001V7.48059H196.344V1.14355H200.001V2.31989H197.606Z" fill="#070707"/>
<path d="M152.72 18.3709C152.72 19.3385 152.163 20.1354 150.808 20.1354H148.506V13.7983H150.863C152.144 13.7983 152.683 14.5762 152.683 15.487C152.683 16.151 152.386 16.6443 151.922 16.9479V16.9858C152.423 17.1945 152.72 17.7068 152.72 18.3709ZM149.75 14.9178V16.3977H150.678C151.105 16.3977 151.365 16.0941 151.365 15.6577C151.365 15.2024 151.086 14.9178 150.678 14.9178H149.75ZM151.42 18.2191C151.42 17.7448 151.142 17.4602 150.659 17.4602H149.75V18.978H150.659C151.16 18.997 151.42 18.7124 151.42 18.2191Z" fill="#070707"/>
<path d="M155.374 14.9747V16.3218H157.675V17.4981H155.374V18.9401H157.768V20.1354H154.111V13.7983H157.768V14.9747H155.374Z" fill="#070707"/>
<path d="M161.984 17.5364V20.1168H160.722V17.5174L158.717 13.7607H160.183L161.316 16.0944H161.371L162.504 13.7607H163.97L161.984 17.5364Z" fill="#070707"/>
<path d="M164.451 16.9482C164.451 14.8991 165.379 13.6279 167.087 13.6279C168.795 13.6279 169.723 14.8991 169.723 16.9482C169.723 18.9973 168.795 20.2685 167.087 20.2685C165.379 20.2685 164.451 18.9973 164.451 16.9482ZM168.405 16.9482C168.405 15.5632 167.941 14.8612 167.069 14.8612C166.196 14.8612 165.732 15.5632 165.732 16.9482C165.732 18.3333 166.196 19.0353 167.069 19.0353C167.941 19.0353 168.405 18.3333 168.405 16.9482Z" fill="#070707"/>
<path d="M175.887 13.7798V20.1168H174.606L172.379 16.1514H172.323V20.1168H171.061V13.7798H172.341L174.569 17.7642H174.625V13.7798H175.887Z" fill="#070707"/>
<path d="M177.52 13.7798H179.673C181.288 13.7798 182.309 14.8992 182.309 16.9483C182.309 18.9974 181.288 20.1168 179.673 20.1168H177.52V13.7798ZM179.58 18.9405C180.453 18.9405 181.009 18.3523 181.009 16.9483C181.009 15.5443 180.453 14.9561 179.58 14.9561H178.763V18.9215H179.58V18.9405Z" fill="#070707"/>
<path d="M148.506 26.4346H150.659C152.274 26.4346 153.295 27.554 153.295 29.6031C153.295 31.6522 152.274 32.7716 150.659 32.7716H148.506V26.4346ZM150.566 31.5763C151.439 31.5763 151.996 30.9881 151.996 29.5841C151.996 28.1801 151.439 27.5919 150.566 27.5919H149.75V31.5573H150.566V31.5763Z" fill="#070707"/>
<path d="M154.67 26.4346H155.932V32.7716H154.67V26.4346Z" fill="#070707"/>
<path d="M162.485 29.4323V29.7928C162.485 31.8988 161.557 32.9424 159.997 32.9424C158.197 32.9424 157.287 31.6522 157.287 29.6221C157.287 27.5919 158.252 26.3018 159.979 26.3018C161.315 26.3018 162.225 27.1366 162.411 28.3129H161.074C160.926 27.8386 160.536 27.535 159.997 27.535C159.106 27.535 158.624 28.256 158.624 29.6221C158.624 30.9881 159.088 31.7091 160.016 31.7091C160.684 31.7091 161.13 31.3866 161.223 30.5517H160.09V29.4513H162.485V29.4323Z" fill="#070707"/>
<path d="M163.857 26.4346H165.12V32.7716H163.857V26.4346Z" fill="#070707"/>
<path d="M166.308 26.4346H170.744V27.6109H169.148V32.7716H167.885V27.6109H166.289V26.4346H166.308Z" fill="#070707"/>
<path d="M174.495 31.5384H172.342L171.933 32.7716H170.652L172.769 26.4346H174.031L176.147 32.7716H174.866L174.495 31.5384ZM174.124 30.343L173.455 28.275H173.4L172.75 30.343H174.124Z" fill="#070707"/>
<path d="M177.26 26.4346H178.522V31.5953H180.75V32.7906H177.278V26.4346H177.26Z" fill="#070707"/>
<path d="M129.942 1.14355H111.379V20.1167H129.942V1.14355Z" fill="#E6007E"/>
</svg>
